# xmcd
#
# Track frame offsets:
#	150
#	12969
#	24968
#	38791
#	51236
#	61524
#	75535
#	89377
#	102933
#	116448
#	127890
#	143386
#	156388
#	170626
#
# Disc length: 2461 seconds
#
# Revision: 0
# Processed by: cddbd v1.5.2PL0 Copyright (c) Steve Scherf et al.
# Submitted via: EasyCDDAExtractor 15.2.1.1
#
DISCID=a2099b0e
DTITLE=Zé Henrique and Gabriel - Lugar Perfeito
DYEAR=2011
DGENRE=sertanejo
TTITLE0=O Lugar Perfeito
TTITLE1=Seja O Que Deus Quiser
TTITLE2=Caso De Balada
TTITLE3=Um Dia Deixo De Te Amar
TTITLE4=Bem Feito Pra Você
TTITLE5=Pela Metade
TTITLE6=Stop
TTITLE7=Fenômenos
TTITLE8=O Tempo Levou
TTITLE9=Por Baixo Do Pano
TTITLE10=Sua Voz
TTITLE11=O Que Passou Passou
TTITLE12=Amanheceu
TTITLE13=Só Quero Com Você
EXTD=
EXTT0=
EXTT1=
EXTT2=
EXTT3=
EXTT4=
EXTT5=
EXTT6=
EXTT7=
EXTT8=
EXTT9=
EXTT10=
EXTT11=
EXTT12=
EXTT13=
PLAYORDER=
